<!-- <svg viewBox="0 0 16 16" width="16px" height="16px"><path fill="#828282" d="M15.969,3.058c-0.586,0.26-1.217,0.436-1.878,0.515c0.675-0.405,1.194-1.045,1.438-1.809c-0.632,0.375-1.332,0.647-2.076,0.793c-0.596-0.636-1.446-1.033-2.387-1.033c-1.806,0-3.27,1.464-3.27,3.27 c0,0.256,0.029,0.506,0.085,0.745C5.163,5.404,2.753,4.102,1.14,2.124C0.859,2.607,0.698,3.168,0.698,3.767 c0,1.134,0.577,2.135,1.455,2.722C1.616,6.472,1.112,6.325,0.671,6.08c0,0.014,0,0.027,0,0.041c0,1.584,1.127,2.906,2.623,3.206 C3.02,9.402,2.731,9.442,2.433,9.442c-0.211,0-0.416-0.021-0.615-0.059c0.416,1.299,1.624,2.245,3.055,2.271 c-1.119,0.877-2.529,1.4-4.061,1.4c-0.264,0-0.524-0.015-0.78-0.046c1.447,0.928,3.166,1.469,5.013,1.469 c6.015,0,9.304-4.983,9.304-9.304c0-0.142-0.003-0.283-0.009-0.423C14.976,4.29,15.531,3.714,15.969,3.058z"/></svg> -->
<svg xmlns="http://www.w3.org/2000/svg" height="16" width="16" viewBox="0 0 235 235"><path d="M177.707 98.987c-35.992-21.375-95.36-23.34-129.719-12.912-5.519 1.674-11.353-1.44-13.024-6.958-1.672-5.521 1.439-11.352 6.96-13.029 39.443-11.972 105.008-9.66 146.443 14.936 4.964 2.947 6.59 9.356 3.649 14.31-2.944 4.963-9.359 6.6-14.31 3.653m-1.178 31.658c-2.525 4.098-7.883 5.383-11.975 2.867-30.005-18.444-75.762-23.788-111.262-13.012-4.603 1.39-9.466-1.204-10.864-5.8a8.717 8.717 0 015.805-10.856c40.553-12.307 90.968-6.347 125.432 14.833 4.092 2.52 5.38 7.88 2.864 11.968m-13.663 30.404a6.954 6.954 0 01-9.569 2.316c-26.22-16.025-59.223-19.644-98.09-10.766a6.955 6.955 0 01-8.331-5.232 6.95 6.95 0 015.233-8.334c42.533-9.722 79.017-5.538 108.448 12.446a6.96 6.96 0 012.31 9.57M111.656 0C49.992 0 0 49.99 0 111.656c0 61.672 49.992 111.66 111.657 111.66 61.668 0 111.659-49.988 111.659-111.66C223.316 49.991 173.326 0 111.657 0" fill="#191414"/></svg>
